<svg width="53" height="52" viewBox="0 0 53 52" fill="none" xmlns="http://www.w3.org/2000/svg">
<path d="M25.491 15.5069C25.491 16.4053 25.9899 17.2181 26.8035 17.6244L30.0685 19.2607C31.1315 19.7954 31.9884 20.6403 32.5308 21.6883L34.1904 24.9074C34.6026 25.7094 35.427 26.2014 36.3382 26.2014C37.2494 26.2014 38.0737 25.7094 38.4859 24.9074L40.1456 21.6883C40.6879 20.6403 41.5448 19.7954 42.6079 19.2607L45.8729 17.6244C46.6864 17.2181 47.1854 16.4053 47.1854 15.5069C47.1854 14.6086 46.6864 13.7958 45.8729 13.3894L42.6079 11.7532C41.5448 11.2185 40.6879 10.3736 40.1456 9.32556L38.4859 6.10653C38.0737 5.30444 37.2494 4.8125 36.3382 4.8125C35.427 4.8125 34.6026 5.30444 34.1904 6.10653L32.5308 9.32556C31.9884 10.3736 31.1315 11.2185 30.0685 11.7532L26.8035 13.3894C25.9899 13.7958 25.491 14.6086 25.491 15.5069ZM31.5437 14.6086C33.225 13.7637 34.5701 12.4376 35.427 10.78L36.3382 9.01542L37.2494 10.78C38.1063 12.4376 39.4513 13.7637 41.1327 14.6086L42.9224 15.5069L41.1327 16.4053C39.4513 17.2501 38.1063 18.5762 37.2494 20.2339L36.3382 21.9985L35.427 20.2339C34.5701 18.5762 33.225 17.2501 31.5437 16.4053L29.7539 15.5069L31.5437 14.6086Z" fill="#B4DF7E"/>
<path d="M17.3555 20.3194C19.1528 20.3194 20.6097 18.883 20.6097 17.1111C20.6097 15.3392 19.1528 13.9028 17.3555 13.9028C15.5583 13.9028 14.1014 15.3392 14.1014 17.1111C14.1014 18.883 15.5583 20.3194 17.3555 20.3194Z" fill="#B4DF7E"/>
<path d="M45.5583 21.9236C44.658 21.9236 43.9312 22.6401 43.9312 23.5278V34.2222C43.9312 34.3506 43.9204 34.4789 43.9095 34.6072L39.1476 30.5754C36.8914 28.6611 33.6155 28.6611 31.3593 30.5754L28.8428 32.7143L21.3039 26.3297C19.0477 24.4154 15.7719 24.4154 13.5156 26.3297L8.14626 30.8856V17.1218C8.14626 12.1061 12.279 8.03153 17.3664 8.03153H28.2136C29.1139 8.03153 29.8407 7.315 29.8407 6.42736C29.8407 5.53972 29.1139 4.82319 28.2136 4.82319H17.3664C10.4893 4.82319 4.89209 10.3415 4.89209 17.1218V34.2329C4.89209 41.0132 10.4893 46.5315 17.3664 46.5315H34.7219C41.5991 46.5315 47.1963 41.0132 47.1963 34.2329V23.5385C47.1963 22.6508 46.4695 21.9343 45.5692 21.9343L45.5583 21.9236ZM8.1788 35.0671L15.6308 28.7574C16.6613 27.8804 18.1582 27.8911 19.1779 28.7574L26.337 34.8211L16.3793 43.259C12.0296 42.8099 8.58014 39.3663 8.1788 35.0671ZM34.7111 43.3125H21.3148L33.4854 33.0031C34.5159 32.1261 36.0128 32.1261 37.0324 33.0031L43.0418 38.0936C41.5665 41.1736 38.3883 43.3125 34.7111 43.3125Z" fill="#B4DF7E"/>
</svg>
