<svg width="52" height="52" viewBox="0 0 52 52" fill="none" xmlns="http://www.w3.org/2000/svg">
<mask id="mask0_43_4143" style="mask-type:alpha" maskUnits="userSpaceOnUse" x="4" y="6" width="44" height="40">
<path fill-rule="evenodd" clip-rule="evenodd" d="M38.6623 13.2339C39.5507 13.356 40.2962 13.5418 40.979 13.8246C43.6335 14.9242 45.7424 17.0331 46.8419 19.6876C47.6666 21.6784 47.6666 24.2023 47.6666 29.25C47.6666 34.2977 47.6666 36.8216 46.8419 38.8124C45.7424 41.467 43.6335 43.5758 40.979 44.6754C38.9882 45.5 36.4643 45.5 31.4166 45.5H20.5833C15.5355 45.5 13.0117 45.5 11.0208 44.6754C8.36637 43.5758 6.2574 41.467 5.15789 38.8124C4.33325 36.8216 4.33325 34.2977 4.33325 29.25C4.33325 24.2023 4.33325 21.6784 5.15789 19.6876C6.2574 17.0331 8.36637 14.9242 11.0208 13.8246C11.7036 13.5418 12.449 13.356 13.3375 13.2339C14.0513 10.7275 14.5952 9.29617 15.6486 8.29298C15.9901 7.96779 16.366 7.6807 16.7695 7.43682C18.3199 6.5 20.3027 6.5 24.2685 6.5H27.7313C31.6972 6.5 33.6799 6.5 35.2304 7.43682C35.6338 7.6807 36.0097 7.96779 36.3512 8.29298C37.4046 9.29617 37.9487 10.7275 38.6623 13.2339Z" fill="white"/>
</mask>
<g mask="url(#mask0_43_4143)">
<path d="M38.6624 13.2339L35.5367 14.1241L36.1178 16.1648L38.2199 16.4537L38.6624 13.2339ZM13.3375 13.2339L13.7799 16.4537L15.882 16.1648L16.4632 14.1241L13.3375 13.2339ZM38.2199 16.4537C38.9081 16.5482 39.3708 16.6763 39.7353 16.8273L42.2226 10.822C41.2216 10.4074 40.1938 10.1638 39.1048 10.0142L38.2199 16.4537ZM39.7353 16.8273C41.5934 17.5969 43.0696 19.0732 43.8394 20.9313L49.8445 18.4439C48.4152 14.9931 45.6735 12.2514 42.2226 10.822L39.7353 16.8273ZM43.8394 20.9313C44.0604 21.4647 44.2292 22.1984 44.321 23.5437C44.4149 24.9182 44.4166 26.6816 44.4166 29.25H50.9166C50.9166 26.7707 50.9183 24.7483 50.8059 23.1012C50.6917 21.425 50.4482 19.9013 49.8445 18.4439L43.8394 20.9313ZM44.4166 29.25C44.4166 31.8184 44.4149 33.5818 44.321 34.9564C44.2292 36.3016 44.0604 37.0353 43.8394 37.5687L49.8445 40.056C50.4482 38.5987 50.6917 37.0749 50.8059 35.3988C50.9183 33.7517 50.9166 31.7293 50.9166 29.25H44.4166ZM43.8394 37.5687C43.0696 39.4268 41.5934 40.903 39.7353 41.6728L42.2226 47.6779C45.6735 46.2486 48.4152 43.5069 49.8445 40.056L43.8394 37.5687ZM39.7353 41.6728C39.2019 41.8938 38.4682 42.0626 37.1229 42.1545C35.7484 42.2483 33.985 42.25 31.4166 42.25V48.75C33.8959 48.75 35.9183 48.7517 37.5654 48.6393C39.2415 48.5251 40.7653 48.2816 42.2226 47.6779L39.7353 41.6728ZM31.4166 42.25H20.5833V48.75H31.4166V42.25ZM20.5833 42.25C18.0149 42.25 16.2515 42.2483 14.877 42.1545C13.5317 42.0626 12.798 41.8938 12.2646 41.6728L9.77713 47.6779C11.2346 48.2816 12.7583 48.5251 14.4345 48.6393C16.0816 48.7517 18.1039 48.75 20.5833 48.75V42.25ZM12.2646 41.6728C10.4064 40.903 8.93016 39.4268 8.1605 37.5687L2.15528 40.056C3.58465 43.5069 6.32633 46.2486 9.77713 47.6779L12.2646 41.6728ZM8.1605 37.5687C7.93956 37.0353 7.77058 36.3016 7.6788 34.9564C7.58501 33.5818 7.58325 31.8184 7.58325 29.25H1.08325C1.08325 31.7293 1.08149 33.7517 1.19387 35.3988C1.30824 37.0749 1.55159 38.5987 2.15528 40.056L8.1605 37.5687ZM7.58325 29.25C7.58325 26.6816 7.58501 24.9182 7.6788 23.5437C7.77058 22.1984 7.93956 21.4647 8.1605 20.9313L2.15528 18.4439C1.55159 19.9013 1.30824 21.425 1.19387 23.1012C1.08149 24.7483 1.08325 26.7707 1.08325 29.25H7.58325ZM8.1605 20.9313C8.93016 19.0732 10.4064 17.5969 12.2646 16.8273L9.77713 10.822C6.32633 12.2514 3.58465 14.9931 2.15528 18.4439L8.1605 20.9313ZM12.2646 16.8273C12.6291 16.6763 13.0919 16.5482 13.7799 16.4537L12.895 10.0142C11.8062 10.1638 10.7781 10.4074 9.77713 10.822L12.2646 16.8273ZM16.4632 14.1241C17.2021 11.5297 17.5645 10.9564 17.89 10.6465L13.4073 5.93947C11.6259 7.63597 10.9005 9.92531 10.2118 12.3437L16.4632 14.1241ZM17.89 10.6465C18.0607 10.4839 18.2486 10.3404 18.4504 10.2184L15.0887 4.65524C14.4833 5.02106 13.9195 5.45167 13.4073 5.93947L17.89 10.6465ZM18.4504 10.2184C18.6558 10.0943 19.0084 9.94269 19.9328 9.85137C20.9214 9.75369 22.2213 9.75001 24.2685 9.75001V3.25001C22.35 3.25001 20.6755 3.24633 19.2937 3.38287C17.8476 3.52574 16.4336 3.84255 15.0887 4.65524L18.4504 10.2184ZM24.2685 9.75001H27.7313V3.25001H24.2685V9.75001ZM27.7313 9.75001C29.7786 9.75001 31.0784 9.75369 32.067 9.85137C32.9915 9.94269 33.3441 10.0943 33.5495 10.2184L36.9113 4.65524C35.5662 3.84255 34.1522 3.52574 32.7062 3.38287C31.3243 3.24633 29.6499 3.25001 27.7313 3.25001V9.75001ZM33.5495 10.2184C33.7512 10.3404 33.9392 10.4839 34.11 10.6465L38.5926 5.93947C38.0804 5.45167 37.5166 5.02106 36.9113 4.65524L33.5495 10.2184ZM34.11 10.6465C34.4354 10.9564 34.7979 11.5297 35.5367 14.1241L41.788 12.3437C41.0994 9.92531 40.374 7.63597 38.5926 5.93947L34.11 10.6465Z" fill="#B4DF7E"/>
<path d="M33.0416 28.1667C33.0416 24.2777 29.8889 21.125 25.9999 21.125C22.1109 21.125 18.9583 24.2777 18.9583 28.1667C18.9583 32.0557 22.1109 35.2083 25.9999 35.2083C29.8889 35.2083 33.0416 32.0557 33.0416 28.1667Z" stroke="#B4DF7E" stroke-width="3"/>
</g>
</svg>
