<svg width="76" height="76" viewBox="0 0 76 76" fill="none" xmlns="http://www.w3.org/2000/svg">
<path fill-rule="evenodd" clip-rule="evenodd" d="M38 12.0625C31.9239 12.0625 27.0732 17.1558 27.0625 23.3093L27.0625 36.147C27.0625 42.2734 31.931 47.3225 38 47.3225H39.0714C45.1405 47.3225 50.0089 42.2734 50.0089 36.147V23.3296C50.0089 17.1668 45.1542 12.0625 39.0714 12.0625H38ZM32.8661 36.8738V22.6C33.2106 19.937 35.4404 17.9341 38 17.9341H39.0714C41.6311 17.9341 43.8608 19.937 44.2054 22.6V36.8738C43.8586 39.4711 41.6442 41.4509 39.0714 41.4509H38C35.4273 41.4509 33.2128 39.4711 32.8661 36.8738Z" fill="#B4DF7E"/>
<path d="M21.2141 38.9119C19.5748 38.9119 18.3123 40.2635 18.3123 41.8477C18.3123 46.6394 20.9992 50.8537 24.5704 53.8956C27.4581 56.3553 31.0485 56.9327 34.6147 57.5062C34.9847 57.5657 35.3544 57.6251 35.7231 57.6866V62.4409H26.9284C25.2891 62.4409 24.0266 63.7925 24.0266 65.3767C24.0266 66.9609 25.2891 68.3125 26.9284 68.3125H50.3213C51.9606 68.3125 53.2231 66.9609 53.2231 65.3767C53.2231 63.7925 51.9606 62.4409 50.3213 62.4409H41.5266V57.6866C41.8953 57.6251 42.265 57.5657 42.635 57.5062C46.2012 56.9327 49.7916 56.3553 52.6793 53.8956C56.2505 50.8537 58.9373 46.6394 58.9373 41.8477C58.9373 40.2635 57.6748 38.9119 56.0356 38.9119C54.3963 38.9119 53.1338 40.2635 53.1338 41.8477C53.1338 44.8497 51.2875 47.7594 48.385 49.9916C45.6666 52.0823 42.244 52.0724 39.2049 52.0636C39.0099 52.0631 38.8164 52.0625 38.6248 52.0625C38.4333 52.0625 38.2398 52.0631 38.0448 52.0636C35.0057 52.0724 31.5831 52.0823 28.8647 49.9916C25.9622 47.7594 24.1159 44.8497 24.1159 41.8477C24.1159 40.2635 22.8534 38.9119 21.2141 38.9119Z" fill="#B4DF7E"/>
<path d="M61.4704 7.953C61.8594 6.349 64.1406 6.349 64.5296 7.953L65.5998 12.3665C65.7387 12.9392 66.1858 13.3863 66.7585 13.5252L71.172 14.5954C72.776 14.9844 72.776 17.2656 71.172 17.6546L66.7585 18.7248C66.1858 18.8637 65.7387 19.3108 65.5998 19.8835L64.5296 24.297C64.1406 25.901 61.8594 25.901 61.4704 24.297L60.4002 19.8835C60.2613 19.3108 59.8142 18.8637 59.2415 18.7248L54.828 17.6546C54.7278 17.6303 54.6338 17.5986 54.5461 17.5604C53.2303 16.9879 53.3242 14.9601 54.828 14.5954L59.2415 13.5252C59.8142 13.3863 60.2613 12.9392 60.4002 12.3665L61.4704 7.953Z" fill="#B4DF7E"/>
<path d="M10.1629 54.6275C10.487 53.2908 12.388 53.2908 12.7121 54.6275L13.604 58.3054C13.7197 58.7827 14.0923 59.1553 14.5696 59.271L18.2475 60.1628C19.5842 60.487 19.5842 62.388 18.2475 62.7122L14.5696 63.604C14.5099 63.6185 14.4519 63.6369 14.3958 63.6591C14.0032 63.8145 13.7053 64.152 13.604 64.5696L12.7121 68.2475C12.6919 68.331 12.6655 68.4094 12.6337 68.4825C12.1566 69.5789 10.4667 69.5006 10.1629 68.2475L9.27101 64.5696C9.26377 64.5397 9.25554 64.5103 9.24634 64.4813C9.1083 64.0468 8.75285 63.7125 8.30544 63.604L4.6275 62.7122C4.54396 62.6919 4.46564 62.6655 4.39254 62.6337C3.29605 62.1566 3.37437 60.4667 4.6275 60.1628L8.30544 59.271C8.78267 59.1553 9.15528 58.7827 9.27101 58.3054L10.1629 54.6275Z" fill="#B4DF7E"/>
<path d="M22.375 9.875C22.375 11.6009 20.9759 13 19.25 13C17.5241 13 16.125 11.6009 16.125 9.875C16.125 8.14911 17.5241 6.75 19.25 6.75C20.9759 6.75 22.375 8.14911 22.375 9.875Z" fill="#B4DF7E"/>
<path d="M69.25 66.125C69.25 67.8509 67.8509 69.25 66.125 69.25C64.3991 69.25 63 67.8509 63 66.125C63 64.3991 64.3991 63 66.125 63C67.8509 63 69.25 64.3991 69.25 66.125Z" fill="#B4DF7E"/>
<path d="M69.25 53.625C69.25 55.3509 67.8509 56.75 66.125 56.75C64.3991 56.75 63 55.3509 63 53.625C63 51.8991 64.3991 50.5 66.125 50.5C67.8509 50.5 69.25 51.8991 69.25 53.625Z" fill="#B4DF7E"/>
<path d="M13 19.25C13 20.9759 11.6009 22.375 9.875 22.375C8.14911 22.375 6.75 20.9759 6.75 19.25C6.75 17.5241 8.14911 16.125 9.875 16.125C11.6009 16.125 13 17.5241 13 19.25Z" fill="#B4DF7E"/>
</svg>
