<svg width="24" height="24" viewBox="0 0 24 24" fill="none" xmlns="http://www.w3.org/2000/svg">
<path d="M8.71841 9.0885L16.64 10.9174L14.1993 21.4893C14.1218 21.8252 13.9139 22.1166 13.6215 22.2993C13.3291 22.482 12.9762 22.5411 12.6402 22.4635L7.25194 21.2195C6.916 21.142 6.62462 20.9341 6.44191 20.6417C6.25921 20.3494 6.20014 19.9964 6.2777 19.6604L8.71841 9.0885Z" stroke="black" stroke-width="2" stroke-linecap="round" stroke-linejoin="round"/>
<path d="M16.7847 8.15686L9.66489 6.46866C9.06489 6.32639 8.46316 6.69746 8.32089 7.29746L8.19209 7.84066C8.04982 8.44066 8.42089 9.04239 9.02089 9.18466L16.1407 10.8729C16.7407 11.0151 17.3424 10.6441 17.4847 10.0441L17.6135 9.50086C17.7558 8.90086 17.3847 8.29913 16.7847 8.15686Z" stroke="black" stroke-width="1.99379" stroke-linecap="round" stroke-linejoin="round"/>
<path d="M15.38 4.07998C15.3 3.84998 15.6 3.07998 15.6 3.07998C15.6413 2.9098 15.648 2.73308 15.6198 2.56025C15.5916 2.38742 15.5291 2.222 15.4358 2.07377C15.3426 1.92554 15.2206 1.7975 15.077 1.69723C14.9335 1.59696 14.7713 1.52649 14.6 1.48998C14.2593 1.41543 13.9029 1.47876 13.6087 1.66614C13.3146 1.85351 13.1065 2.14969 13.03 2.48998C13.03 2.48998 13.03 3.27998 12.81 3.48998C12 4.37998 10.63 4.68998 10.33 5.99998L10.2 6.55998L16.43 7.99998L16.55 7.43998C16.86 6.12998 15.79 5.25998 15.38 4.07998Z" stroke="black" stroke-width="2" stroke-linecap="round" stroke-linejoin="round"/>
<path d="M12.51 12.65L14.02 13" stroke="black" stroke-width="2" stroke-linecap="round" stroke-linejoin="round"/>
<path d="M11.98 14.96L13.48 15.3" stroke="black" stroke-width="2" stroke-linecap="round" stroke-linejoin="round"/>
<path d="M11.45 17.26L12.95 17.61" stroke="black" stroke-width="2" stroke-linecap="round" stroke-linejoin="round"/>
</svg>
