<svg width="24" height="26" viewBox="0 0 24 26" fill="none" xmlns="http://www.w3.org/2000/svg">
<path d="M19.0032 8.68134C19.0032 6.64412 18.2445 4.69035 16.8939 3.24982C15.5434 1.80928 13.7118 1 11.8019 1C9.892 1 8.06033 1.80928 6.70983 3.24982C5.35933 4.69035 4.60063 6.64412 4.60063 8.68134C4.60063 17.643 1 20.2034 1 20.2034H22.6038C22.6038 20.2034 19.0032 17.643 19.0032 8.68134Z" stroke="black" stroke-width="2" stroke-linecap="round" stroke-linejoin="round"/>
<path d="M13.8783 23.8041C13.6673 24.1679 13.3644 24.4698 12.9999 24.6796C12.6356 24.8895 12.2224 25.0001 11.8019 25.0001C11.3813 25.0001 10.9682 24.8895 10.6038 24.6796C10.2395 24.4698 9.93652 24.1679 9.72552 23.8041" stroke="black" stroke-width="2" stroke-linecap="round" stroke-linejoin="round"/>
</svg>
