<svg width="25" height="26" viewBox="0 0 25 26" fill="none" xmlns="http://www.w3.org/2000/svg">
<path d="M19.1635 11.8019C19.8619 18.2536 22.6038 20.2034 22.6038 20.2034H1C1 20.2034 4.60063 17.643 4.60063 8.68134C4.60063 6.64412 5.35933 4.69035 6.70983 3.24982C8.06033 1.80928 9.892 1 11.8019 1C12.2067 1 12.6081 1.03637 13.0021 1.10741" stroke="black" stroke-width="2" stroke-linecap="round" stroke-linejoin="round"/>
<path d="M20.2034 8.20126C22.192 8.20126 23.804 6.5892 23.804 4.60063C23.804 2.61206 22.192 1 20.2034 1C18.2147 1 16.6027 2.61206 16.6027 4.60063C16.6027 6.5892 18.2147 8.20126 20.2034 8.20126Z" stroke="black" stroke-width="2" stroke-linecap="round" stroke-linejoin="round"/>
<path d="M13.8783 23.804C13.6673 24.1677 13.3644 24.4697 12.9999 24.6795C12.6356 24.8894 12.2224 25 11.8019 25C11.3813 25 10.9682 24.8894 10.6038 24.6795C10.2395 24.4697 9.93652 24.1677 9.72552 23.804" stroke="black" stroke-width="2" stroke-linecap="round" stroke-linejoin="round"/>
</svg>
