<svg width="25" height="24" viewBox="0 0 25 24" fill="none" xmlns="http://www.w3.org/2000/svg">
<path d="M9.01843 9.0885L16.9401 10.9174L14.4993 21.4893C14.4218 21.8252 14.2139 22.1166 13.9216 22.2993C13.6292 22.482 13.2762 22.5411 12.9402 22.4635L7.55196 21.2195C7.21601 21.142 6.92464 20.9341 6.74193 20.6417C6.55923 20.3494 6.50015 19.9964 6.57771 19.6604L9.01843 9.0885Z" stroke="#4E4E4E" stroke-width="1.2" stroke-linecap="round" stroke-linejoin="round"/>
<path d="M17.0847 8.15686L9.96488 6.46866C9.36488 6.32639 8.76315 6.69746 8.62088 7.29746L8.49208 7.84066C8.34981 8.44066 8.72088 9.04239 9.32088 9.18466L16.4407 10.8729C17.0407 11.0151 17.6424 10.6441 17.7847 10.0441L17.9135 9.50086C18.0557 8.90086 17.6847 8.29913 17.0847 8.15686Z" stroke="#4E4E4E" stroke-width="1.2" stroke-linecap="round" stroke-linejoin="round"/>
<path d="M15.68 4.07998C15.6 3.84998 15.9 3.07998 15.9 3.07998C15.9413 2.9098 15.948 2.73308 15.9198 2.56025C15.8916 2.38742 15.8291 2.222 15.7358 2.07377C15.6426 1.92554 15.5206 1.7975 15.377 1.69723C15.2335 1.59696 15.0713 1.52649 14.9 1.48998C14.5593 1.41543 14.2029 1.47876 13.9087 1.66614C13.6146 1.85351 13.4065 2.14969 13.33 2.48998C13.33 2.48998 13.33 3.27998 13.11 3.48998C12.3 4.37998 10.93 4.68998 10.63 5.99998L10.5 6.55998L16.73 7.99998L16.85 7.43998C17.16 6.12998 16.09 5.25998 15.68 4.07998Z" stroke="#4E4E4E" stroke-width="1.2" stroke-linecap="round" stroke-linejoin="round"/>
<path d="M12.81 12.65L14.32 13" stroke="#4E4E4E" stroke-width="1.2" stroke-linecap="round" stroke-linejoin="round"/>
<path d="M12.28 14.96L13.78 15.3" stroke="#4E4E4E" stroke-width="1.2" stroke-linecap="round" stroke-linejoin="round"/>
<path d="M11.75 17.26L13.25 17.61" stroke="#4E4E4E" stroke-width="1.2" stroke-linecap="round" stroke-linejoin="round"/>
</svg>
