<svg width="27" height="26" viewBox="0 0 27 26" fill="none" xmlns="http://www.w3.org/2000/svg">
<path d="M25.9 6.08229V24.1529C25.9 24.6207 25.5208 24.9999 25.053 24.9999H6.98237C6.51456 24.9999 6.13531 24.6207 6.13531 24.1529V6.08229C6.13531 5.61447 6.51456 5.23523 6.98237 5.23523H25.053C25.5208 5.23523 25.9 5.61447 25.9 6.08229Z" stroke="#EA466E" stroke-width="2" stroke-linecap="round" stroke-linejoin="round"/>
<path d="M21.6647 1H2.74708C2.27927 1 1.90002 1.37924 1.90002 1.84706V20.7647" stroke="#EA466E" stroke-width="2" stroke-linecap="round" stroke-linejoin="round"/>
<path d="M6.13531 19.0706L13.8215 16.5294L25.9 20.7647" stroke="#EA466E" stroke-width="2" stroke-linecap="round" stroke-linejoin="round"/>
<path d="M19.5471 13.7059C18.3776 13.7059 17.4294 12.7577 17.4294 11.5882C17.4294 10.4187 18.3776 9.47058 19.5471 9.47058C20.7166 9.47058 21.6647 10.4187 21.6647 11.5882C21.6647 12.7577 20.7166 13.7059 19.5471 13.7059Z" stroke="#EA466E" stroke-width="2" stroke-linecap="round" stroke-linejoin="round"/>
</svg>
