<svg width="26" height="26" viewBox="0 0 26 26" fill="none" xmlns="http://www.w3.org/2000/svg">
<path d="M24.9 6.08229V24.1529C24.9 24.6207 24.5208 24.9999 24.0529 24.9999H5.98231C5.5145 24.9999 5.13525 24.6207 5.13525 24.1529V6.08229C5.13525 5.61447 5.5145 5.23523 5.98231 5.23523H24.0529C24.5208 5.23523 24.9 5.61447 24.9 6.08229Z" stroke="#4E4E4E" stroke-width="1.5" stroke-linecap="round" stroke-linejoin="round"/>
<path d="M20.6647 1H1.74702C1.27921 1 0.899963 1.37924 0.899963 1.84706V20.7647" stroke="#4E4E4E" stroke-width="1.5" stroke-linecap="round" stroke-linejoin="round"/>
<path d="M5.13525 19.0706L12.8215 16.5294L24.9 20.7647" stroke="#4E4E4E" stroke-width="1.5" stroke-linecap="round" stroke-linejoin="round"/>
<path d="M18.547 13.7059C17.3775 13.7059 16.4294 12.7577 16.4294 11.5882C16.4294 10.4187 17.3775 9.47058 18.547 9.47058C19.7165 9.47058 20.6647 10.4187 20.6647 11.5882C20.6647 12.7577 19.7165 13.7059 18.547 13.7059Z" stroke="#4E4E4E" stroke-width="1.5" stroke-linecap="round" stroke-linejoin="round"/>
</svg>
