<svg width="25" height="24" viewBox="0 0 25 24" fill="none" xmlns="http://www.w3.org/2000/svg">
<g clip-path="url(#clip0_152_97)">
<path d="M17.1 21V19C17.1 17.9391 16.6785 16.9217 15.9284 16.1716C15.1783 15.4214 14.1608 15 13.1 15H5.09998C4.03911 15 3.02169 15.4214 2.27155 16.1716C1.5214 16.9217 1.09998 17.9391 1.09998 19V21" stroke="#4E4E4E" stroke-width="1.5" stroke-linecap="round" stroke-linejoin="round"/>
<path d="M9.09998 11C11.3091 11 13.1 9.20914 13.1 7C13.1 4.79086 11.3091 3 9.09998 3C6.89084 3 5.09998 4.79086 5.09998 7C5.09998 9.20914 6.89084 11 9.09998 11Z" stroke="#4E4E4E" stroke-width="1.5" stroke-linecap="round" stroke-linejoin="round"/>
<path d="M23.1 21V19C23.0993 18.1137 22.8043 17.2528 22.2613 16.5523C21.7184 15.8519 20.9581 15.3516 20.1 15.13" stroke="#4E4E4E" stroke-width="1.5" stroke-linecap="round" stroke-linejoin="round"/>
<path d="M16.1 3.13C16.9604 3.35031 17.723 3.85071 18.2676 4.55232C18.8122 5.25392 19.1078 6.11683 19.1078 7.005C19.1078 7.89318 18.8122 8.75608 18.2676 9.45769C17.723 10.1593 16.9604 10.6597 16.1 10.88" stroke="#4E4E4E" stroke-width="1.5" stroke-linecap="round" stroke-linejoin="round"/>
</g>
<defs>
<clipPath id="clip0_152_97">
<rect width="24" height="24" fill="white" transform="translate(0.0999756)"/>
</clipPath>
</defs>
</svg>
