<svg width="25" height="24" viewBox="0 0 25 24" fill="none" xmlns="http://www.w3.org/2000/svg">
<g clip-path="url(#clip0_161_3080)">
<path d="M17.1 21V19C17.1 17.9391 16.6786 16.9217 15.9285 16.1716C15.1783 15.4214 14.1609 15 13.1 15H5.10004C4.03917 15 3.02176 15.4214 2.27161 16.1716C1.52146 16.9217 1.10004 17.9391 1.10004 19V21" stroke="#EA466E" stroke-width="2" stroke-linecap="round" stroke-linejoin="round"/>
<path d="M9.10004 11C11.3092 11 13.1 9.20914 13.1 7C13.1 4.79086 11.3092 3 9.10004 3C6.8909 3 5.10004 4.79086 5.10004 7C5.10004 9.20914 6.8909 11 9.10004 11Z" stroke="#EA466E" stroke-width="2" stroke-linecap="round" stroke-linejoin="round"/>
<path d="M23.1 21V19C23.0994 18.1137 22.8044 17.2528 22.2614 16.5523C21.7184 15.8519 20.9582 15.3516 20.1 15.13" stroke="#EA466E" stroke-width="2" stroke-linecap="round" stroke-linejoin="round"/>
<path d="M16.1 3.13C16.9605 3.35031 17.7231 3.85071 18.2677 4.55232C18.8123 5.25392 19.1079 6.11683 19.1079 7.005C19.1079 7.89318 18.8123 8.75608 18.2677 9.45769C17.7231 10.1593 16.9605 10.6597 16.1 10.88" stroke="#EA466E" stroke-width="2" stroke-linecap="round" stroke-linejoin="round"/>
</g>
<defs>
<clipPath id="clip0_161_3080">
<rect width="24" height="24" fill="white" transform="translate(0.100037)"/>
</clipPath>
</defs>
</svg>
